<svg xmlns="http://www.w3.org/2000/svg" width="18" height="18" viewBox="0 0 18 18">
  <path id="activity" d="M6.891,15.855a2.109,2.109,0,1,1,4.219,0,2.11,2.11,0,1,1-4.219,0Zm4.318-2.25a2.791,2.791,0,0,0,.427-1.473.529.529,0,0,1,.5-.5,2.79,2.79,0,0,0,1.473-.427,3.165,3.165,0,0,0,2.093.939,4.75,4.75,0,0,1-2.157,1.394A4.75,4.75,0,0,1,12.148,15.7,3.165,3.165,0,0,0,11.209,13.605Zm-6.751-.063A4.75,4.75,0,0,1,2.3,12.148a3.165,3.165,0,0,0,2.093-.939,2.791,2.791,0,0,0,1.473.427.529.529,0,0,1,.5.5,2.79,2.79,0,0,0,.427,1.473A3.165,3.165,0,0,0,5.852,15.7,4.751,4.751,0,0,1,4.458,13.542ZM13.746,9a2.109,2.109,0,0,1,2.109-2.109,2.11,2.11,0,1,1,0,4.219A2.109,2.109,0,0,1,13.746,9ZM6.891,9A2.109,2.109,0,1,1,9,11.109,2.111,2.111,0,0,1,6.891,9ZM0,9A2.14,2.14,0,0,1,2.145,6.891a2.109,2.109,0,0,1,0,4.219A2.14,2.14,0,0,1,0,9ZM2.3,5.852a4.753,4.753,0,0,1,2.1-1.378A4.579,4.579,0,0,1,5.842,2.205a3.154,3.154,0,0,0,.9,2.138,2.851,2.851,0,0,0-.386,1.532.5.5,0,0,1-.485.489,2.79,2.79,0,0,0-1.473.427A3.164,3.164,0,0,0,2.3,5.852Zm9.83.512a.5.5,0,0,1-.485-.489,2.849,2.849,0,0,0-.386-1.532,3.154,3.154,0,0,0,.9-2.137,4.579,4.579,0,0,1,1.437,2.269,4.753,4.753,0,0,1,2.1,1.378,3.164,3.164,0,0,0-2.092.939A2.79,2.79,0,0,0,12.132,6.364ZM6.891,2.145a2.11,2.11,0,1,1,4.219,0,2.109,2.109,0,0,1-4.219,0Z"/>
</svg>
