<svg xmlns="http://www.w3.org/2000/svg" width="26.18" height="25" viewBox="0 0 26.18 25">
  <path id="award" d="M11041.959,24441l1.6-4.4h3.161l.883-3.459a8.493,8.493,0,0,1-5.936-5.76,4.933,4.933,0,0,1-4.668-4.75v-4.771h4.378V24416h17.425v1.857h4.377v4.771a4.932,4.932,0,0,1-4.669,4.75,8.493,8.493,0,0,1-5.935,5.76l.883,3.459h3.162l1.6,4.4Zm2.18-1.469h11.9l-.533-1.467h-10.832Zm4.182-2.934h3.535l-.811-3.17a9.229,9.229,0,0,1-1.915,0Zm-5.386-11.326c.39,8.938,13.914,8.943,14.308,0v-7.8h-14.308Zm15.844.59a3.387,3.387,0,0,0,2.841-3.232v-3.3h-2.818C11058.79,24419.707,11058.826,24425.646,11058.778,24425.861Zm-20.222-3.232a3.387,3.387,0,0,0,2.841,3.232c-.043-.045-.015-6.285-.021-6.533h-2.819Zm9.168,2.422v-1.469h4.727v1.469Zm-.936-2.936v-1.467h6.6v1.467Z" transform="translate(-11036.998 -24416)" fill="#ff5934"/>
</svg>
