<svg xmlns="http://www.w3.org/2000/svg" width="18" height="18" viewBox="0 0 18 18">
  <path id="blog" d="M16.2,0H1.8A1.805,1.805,0,0,0,0,1.8V16.2A1.805,1.805,0,0,0,1.8,18H16.2A1.805,1.805,0,0,0,18,16.2V1.8A1.805,1.805,0,0,0,16.2,0ZM12.6,6.3v.9a.85.85,0,0,0,.9.9.85.85,0,0,1,.9.9v2.7a2.652,2.652,0,0,1-2.7,2.7H6.3a2.652,2.652,0,0,1-2.7-2.7V5.4A2.652,2.652,0,0,1,6.3,2.7H9.9a2.652,2.652,0,0,1,2.7,2.7Zm-5.4.9H9.54a.85.85,0,0,0,.9-.9.85.85,0,0,0-.9-.9H7.2a.85.85,0,0,0-.9.9A.85.85,0,0,0,7.2,7.2Zm3.6,2.7H7.2a.9.9,0,1,0,0,1.8h3.6a.9.9,0,1,0,0-1.8Z"/>
</svg>
