<svg xmlns="http://www.w3.org/2000/svg" width="16.3" height="13.3" viewBox="0 0 16.3 13.3">
  <g id="camera" transform="translate(0.15 -44.65)" opacity="0.2">
    <g id="Group_6476" data-name="Group 6476" transform="translate(0 44.8)">
      <g id="Group_6475" data-name="Group 6475" transform="translate(0 0)">
        <path id="Path_7028" data-name="Path 7028" d="M15.468,46.825a1.7,1.7,0,0,0-1.262-.55H11.681v-.031a1.433,1.433,0,0,0-.411-1.021,1.37,1.37,0,0,0-.989-.424H5.719a1.379,1.379,0,0,0-1,.424A1.46,1.46,0,0,0,4.3,46.244v.031H1.795a1.7,1.7,0,0,0-1.262.55A1.9,1.9,0,0,0,0,48.128v7.819a1.8,1.8,0,0,0,.532,1.3,1.781,1.781,0,0,0,1.262.55H14.205a1.7,1.7,0,0,0,1.262-.55,1.9,1.9,0,0,0,.532-1.3V48.128A1.8,1.8,0,0,0,15.468,46.825Zm-.259,9.122h-.015a1.025,1.025,0,0,1-.289.722.961.961,0,0,1-.7.3H1.795a.961.961,0,0,1-.7-.3,1.025,1.025,0,0,1-.289-.722V48.128a1.025,1.025,0,0,1,.289-.722.961.961,0,0,1,.7-.3H4.73a.416.416,0,0,0,.411-.424v-.455a.628.628,0,0,1,.167-.44.588.588,0,0,1,.426-.173h4.548a.588.588,0,0,1,.426.173.628.628,0,0,1,.167.44v.455a.416.416,0,0,0,.411.424h2.935a.961.961,0,0,1,.7.3,1.025,1.025,0,0,1,.289.722Z" transform="translate(0 -44.8)" stroke="#000" stroke-width="0.3"/>
        <path id="Path_7029" data-name="Path 7029" d="M115.858,130.8a3.856,3.856,0,1,0,2.729,1.129A3.865,3.865,0,0,0,115.858,130.8Zm2.133,6.007a3.029,3.029,0,0,1-4.266,0,3,3,0,0,1-.878-2.133,3.065,3.065,0,0,1,.878-2.133,3,3,0,0,1,2.133-.878,3.065,3.065,0,0,1,2.133.878,3,3,0,0,1,.878,2.133A2.935,2.935,0,0,1,117.991,136.807Z" transform="translate(-107.858 -127.415)" stroke="#000" stroke-width="0.3"/>
        <circle id="Ellipse_684" data-name="Ellipse 684" cx="0.769" cy="0.769" r="0.769" transform="translate(12.565 3.36)" stroke="#000" stroke-width="0.3"/>
      </g>
    </g>
  </g>
</svg>
