<svg xmlns="http://www.w3.org/2000/svg" width="30" height="24.996" viewBox="0 0 30 24.996">
  <g id="cart" transform="translate(0 -40.283)">
    <path id="Path_15761" data-name="Path 15761" d="M29.555,48.671a2.082,2.082,0,0,0-1.631-.773H22.146L19.013,40.8a.883.883,0,0,0-1.157-.449A.865.865,0,0,0,17.4,41.5l2.826,6.4H9.772L12.6,41.5a.865.865,0,0,0-.454-1.144.883.883,0,0,0-1.157.449L7.854,47.9H2.076a2.082,2.082,0,0,0-1.631.773,1.984,1.984,0,0,0-.394,1.7L3.137,63.7a2.055,2.055,0,0,0,2.024,1.58H24.839a2.055,2.055,0,0,0,2.024-1.58l3.085-13.326a1.984,1.984,0,0,0-.394-1.7Zm-4.716,14.87H5.161a.314.314,0,0,1-.311-.23L1.765,49.985a.263.263,0,0,1,.055-.231.32.32,0,0,1,.256-.118h5.01l-.23.521A.865.865,0,0,0,7.309,51.3a.883.883,0,0,0,1.157-.449L9,49.636H21l.537,1.217a.883.883,0,0,0,1.157.449.865.865,0,0,0,.454-1.144l-.23-.521h5.01a.32.32,0,0,1,.256.118.263.263,0,0,1,.055.231L25.149,63.311a.314.314,0,0,1-.311.23Z" fill="#4f5164"/>
    <path id="Path_15762" data-name="Path 15762" d="M151.869,266.717a.869.869,0,0,0-.869.869v6.373a.869.869,0,0,0,1.738,0v-6.373A.869.869,0,0,0,151.869,266.717Z" transform="translate(-142.146 -213.315)" fill="#4f5164"/>
    <path id="Path_15763" data-name="Path 15763" d="M241.869,266.717a.869.869,0,0,0-.869.869v6.373a.869.869,0,0,0,1.738,0v-6.373A.869.869,0,0,0,241.869,266.717Z" transform="translate(-226.869 -213.315)" fill="#4f5164"/>
    <path id="Path_15764" data-name="Path 15764" d="M331.869,266.717a.869.869,0,0,0-.869.869v6.373a.869.869,0,0,0,1.738,0v-6.373A.869.869,0,0,0,331.869,266.717Z" transform="translate(-311.592 -213.315)" fill="#4f5164"/>
  </g>
</svg>
