<svg xmlns="http://www.w3.org/2000/svg" width="14.925" height="14.932" viewBox="0 0 14.925 14.932">
  <g id="chat" transform="translate(-0.117)">
    <g id="Group_6532" data-name="Group 6532" transform="translate(0.117)">
      <path id="Path_7076" data-name="Path 7076" d="M12.857,2.189A7.464,7.464,0,0,0,1.808,12.2,2.8,2.8,0,0,1,.632,13.56a.7.7,0,0,0,.2,1.313,3.552,3.552,0,0,0,.528.041h0a4.827,4.827,0,0,0,2.683-.869A7.466,7.466,0,0,0,12.857,2.189Zm-.6,9.958a6.623,6.623,0,0,1-8.032,1.029.42.42,0,0,0-.472.028,4.02,4.02,0,0,1-2.342.86A4.249,4.249,0,0,0,2.692,12.3a.425.425,0,0,0-.072-.45,6.62,6.62,0,1,1,9.639.3Z" transform="translate(-0.117)" fill="#4f5164"/>
      <path id="Path_7077" data-name="Path 7077" d="M131.958,160h-6.253a.422.422,0,0,0,0,.844h6.253a.422.422,0,0,0,0-.844Z" transform="translate(-121.37 -154.997)" fill="#4f5164"/>
      <path id="Path_7078" data-name="Path 7078" d="M131.958,225.3h-6.253a.422.422,0,0,0,0,.844h6.253a.422.422,0,0,0,0-.844Z" transform="translate(-121.37 -218.256)" fill="#4f5164"/>
      <path id="Path_7079" data-name="Path 7079" d="M131.958,290.6h-6.253a.422.422,0,0,0,0,.844h6.253a.422.422,0,1,0,0-.844Z" transform="translate(-121.37 -281.514)" fill="#4f5164"/>
    </g>
  </g>
</svg>
