<svg xmlns="http://www.w3.org/2000/svg" width="65.9" height="65.9" viewBox="0 0 65.9 65.9">
  <path id="choose3" d="M4637.165-778.417a5.368,5.368,0,0,1,.192-1.431l-9.858-5.621a5.394,5.394,0,0,1-3.874,1.635,5.422,5.422,0,0,1-5.416-5.417,5.422,5.422,0,0,1,5.416-5.417,5.4,5.4,0,0,1,3.875,1.637l9.855-5.622a5.428,5.428,0,0,1-.19-1.429,5.423,5.423,0,0,1,5.417-5.417,5.424,5.424,0,0,1,5.418,5.417,5.421,5.421,0,0,1-5.418,5.414,5.4,5.4,0,0,1-3.873-1.633l-9.861,5.62a5.4,5.4,0,0,1,.191,1.43,5.409,5.409,0,0,1-.191,1.431l9.858,5.622a5.405,5.405,0,0,1,3.876-1.636,5.424,5.424,0,0,1,5.418,5.417,5.424,5.424,0,0,1-5.418,5.417A5.423,5.423,0,0,1,4637.165-778.417Zm2.709,0a2.711,2.711,0,0,0,2.708,2.709,2.715,2.715,0,0,0,2.71-2.709,2.713,2.713,0,0,0-2.71-2.708,2.705,2.705,0,0,0-2.215,1.151,1.371,1.371,0,0,1-.1.224,1.382,1.382,0,0,1-.145.207A2.685,2.685,0,0,0,4639.874-778.417Zm-18.957-10.834a2.71,2.71,0,0,0,2.708,2.708,2.7,2.7,0,0,0,2.211-1.148,1.41,1.41,0,0,1,.1-.227,1.341,1.341,0,0,1,.148-.21,2.7,2.7,0,0,0,.243-1.124,2.7,2.7,0,0,0-.247-1.13,1.424,1.424,0,0,1-.142-.2,1.4,1.4,0,0,1-.1-.219,2.707,2.707,0,0,0-2.218-1.159A2.712,2.712,0,0,0,4620.917-789.251Zm21.665-8.126a2.712,2.712,0,0,0,2.71-2.705,2.713,2.713,0,0,0-2.71-2.709,2.709,2.709,0,0,0-2.708,2.709,2.685,2.685,0,0,0,.243,1.12,1.386,1.386,0,0,1,.147.211,1.334,1.334,0,0,1,.1.228A2.708,2.708,0,0,0,4642.582-797.377Zm-52.812,16.252a6.78,6.78,0,0,1-6.77-6.77V-823.1a6.778,6.778,0,0,1,6.77-6.77h4.064v-1.356a1.355,1.355,0,0,1,1.354-1.353h4.2a6.782,6.782,0,0,1,6.636-5.417,6.784,6.784,0,0,1,6.635,5.417h4.2a1.357,1.357,0,0,1,1.357,1.353v1.356h4.061a6.776,6.776,0,0,1,6.77,6.77v21.666a1.354,1.354,0,0,1-1.353,1.356,1.356,1.356,0,0,1-1.355-1.356V-823.1a4.065,4.065,0,0,0-4.062-4.061h-4.061v1.353a4.069,4.069,0,0,1-4.065,4.061H4597.9a4.066,4.066,0,0,1-4.062-4.061v-1.353h-4.064a4.067,4.067,0,0,0-4.062,4.061V-787.9a4.067,4.067,0,0,0,4.062,4.061h24.374a1.355,1.355,0,0,1,1.355,1.353,1.356,1.356,0,0,1-1.355,1.356Zm6.773-44.687a1.352,1.352,0,0,0,1.353,1.353h16.248a1.355,1.355,0,0,0,1.355-1.353v-4.061h-4.061a1.356,1.356,0,0,1-1.355-1.356,4.067,4.067,0,0,0-4.062-4.061,4.067,4.067,0,0,0-4.065,4.061,1.353,1.353,0,0,1-1.353,1.356h-4.061Zm-4.065,28.436a1.354,1.354,0,0,1-1.353-1.353,1.354,1.354,0,0,1,1.353-1.353h24.374a1.355,1.355,0,0,1,1.357,1.353,1.355,1.355,0,0,1-1.357,1.353Zm0-8.123a1.356,1.356,0,0,1-1.353-1.356,1.356,1.356,0,0,1,1.353-1.353h27.083a1.356,1.356,0,0,1,1.356,1.353,1.357,1.357,0,0,1-1.356,1.356Zm0-8.126a1.356,1.356,0,0,1-1.353-1.353,1.356,1.356,0,0,1,1.353-1.356h27.083a1.357,1.357,0,0,1,1.356,1.356,1.357,1.357,0,0,1-1.356,1.353Z" transform="translate(-4582.55 838.45)" fill="#ff5934" stroke="#fff" stroke-width="0.9"/>
</svg>
