<svg xmlns="http://www.w3.org/2000/svg" width="65" height="65" viewBox="0 0 65 65">
  <path id="choose2" d="M69.156,34.876l-3.267-2.292a28.84,28.84,0,0,0-57.659,0L4.97,34.876a.958.958,0,0,0-.407.783V45.833a.956.956,0,0,0,.4.778l3.656,2.612a.958.958,0,0,0,.554.18h3.641a.957.957,0,0,0,.957-.957V33.154c0-.013,0-.026,0-.04a23.283,23.283,0,0,1,46.566,0,.391.391,0,0,0,.008.1V48.445a.957.957,0,0,0,.957.957h.863v1.1a6.1,6.1,0,0,1-5.167,6.014,21.657,21.657,0,0,0,1.847-8.763V33.735a21.793,21.793,0,0,0-43.585,0V47.757A21.786,21.786,0,0,0,56,58.512h.077A8.017,8.017,0,0,0,64.086,50.5V49.4h.863a.958.958,0,0,0,.557-.178l3.656-2.612a.956.956,0,0,0,.4-.778V35.659a.958.958,0,0,0-.407-.783Zm-32.1-21.015A19.9,19.9,0,0,1,56.937,33.735v5.152A19.526,19.526,0,0,1,37.886,29.16a.957.957,0,0,0-1.656,0A19.526,19.526,0,0,1,17.18,38.887V33.735A19.9,19.9,0,0,1,37.059,13.861Zm0,53.771A19.9,19.9,0,0,1,17.18,47.757V40.81c.664.061,1.33.1,2,.1a21.7,21.7,0,0,0,17.88-9.477,21.7,21.7,0,0,0,17.886,9.477c.667,0,1.333-.042,2-.1v6.947A19.747,19.747,0,0,1,54.856,56.6H45.88a3.122,3.122,0,0,0-2.966-2.16h-3.79a3.116,3.116,0,1,0,0,6.232h3.79a3.122,3.122,0,0,0,2.966-2.16h7.883a19.874,19.874,0,0,1-16.7,9.121Zm7.054-10.018a1.2,1.2,0,0,1-1.2,1.145H39.123a1.2,1.2,0,1,1,0-2.405h3.79a1.2,1.2,0,0,1,1.2,1.145c0,.02-.006.038-.006.058S44.111,57.594,44.112,57.614ZM11.86,47.49H9.483L6.476,45.343V36.159l3-2.105h2.382ZM37.059,8.4A25.341,25.341,0,0,0,11.9,32.138h-1.75a26.936,26.936,0,0,1,53.812,0H62.216A25.342,25.342,0,0,0,37.059,8.4Zm30.59,36.943-3.007,2.147H62.265V34.051h2.382l3,2.105Z" transform="translate(-4.563 -4.547)" fill="#ff5934"/>
</svg>
