<svg xmlns="http://www.w3.org/2000/svg" width="16.405" height="16.405" viewBox="0 0 16.405 16.405">
  <path id="dribble" d="M8.2,0a8.2,8.2,0,1,0,8.2,8.2A8.212,8.212,0,0,0,8.2,0ZM13.548,3.87a6.851,6.851,0,0,1,1.535,4.124,11.579,11.579,0,0,0-4.614-.044c-.247-.577-.5-1.127-.76-1.647A13.584,13.584,0,0,0,13.548,3.87Zm-.924-.939A12.23,12.23,0,0,1,9.1,5.13,31.608,31.608,0,0,0,6.767,1.47,6.869,6.869,0,0,1,12.624,2.93ZM5.437,1.9a30.148,30.148,0,0,1,2.4,3.7,22.015,22.015,0,0,1-6.33,1A6.912,6.912,0,0,1,5.437,1.9ZM1.324,7.921h.039a23.818,23.818,0,0,0,4.175-.385,20.29,20.29,0,0,0,2.923-.754c.239.475.476.977.706,1.5a12.41,12.41,0,0,0-3.222,1.6,14.51,14.51,0,0,0-2.994,2.767A6.853,6.853,0,0,1,1.317,8.2C1.317,8.109,1.32,8.015,1.324,7.921ZM3.9,13.573a13.243,13.243,0,0,1,2.83-2.633A11.043,11.043,0,0,1,9.666,9.5a25.623,25.623,0,0,1,1.383,4.973,6.863,6.863,0,0,1-7.149-.9Zm8.361.188a27.3,27.3,0,0,0-1.294-4.576A10.377,10.377,0,0,1,15,9.322,6.893,6.893,0,0,1,12.261,13.762Z" transform="translate(0 -0.001)" fill="#ff5934"/>
</svg>
