<svg xmlns="http://www.w3.org/2000/svg" width="30.996" height="30.908" viewBox="0 0 30.996 30.908">
  <g id="earning" transform="translate(0.45 0.46)">
    <path id="Path_6969" data-name="Path 6969" d="M37.463,21.47a1.983,1.983,0,0,0-2.62-.538l-.564.241a8.783,8.783,0,0,0,.557-5.818,13.918,13.918,0,0,0-3.648-6.4.463.463,0,0,0-.64-.027.43.43,0,0,0-.028.621,13.065,13.065,0,0,1,3.432,5.992,7.677,7.677,0,0,1-1.064,6.222l-5.641,2.408,0-.618a.417.417,0,0,0,0-.047,2.793,2.793,0,0,0-2.434-2.46H24.8l-5.014-.56c-1.928-.266-2.424-1.386-5.035-2.025a9.2,9.2,0,0,1,.719-4.648A16.847,16.847,0,0,1,21.1,7.1c1,.69,5.48.776,6.482-.114.513.378,1,.767,1.459,1.161a.463.463,0,0,0,.64-.036.43.43,0,0,0-.037-.62c-.5-.432-1.038-.858-1.6-1.27A1.536,1.536,0,0,0,27.5,4.658c1.419-2.086,1.832-3.452,1.262-4.168A.809.809,0,0,0,27.675.328.745.745,0,0,1,26.805.3,1.671,1.671,0,0,0,24.9.3a.749.749,0,0,1-.916,0,1.671,1.671,0,0,0-1.908,0,.74.74,0,0,1-.868.028.808.808,0,0,0-1.088.157c-.557.7-.184,2.018,1.139,4.033a1.48,1.48,0,0,0-.23.149A3.109,3.109,0,0,0,18.39,3.7a3.4,3.4,0,0,1-2.255-.517.462.462,0,0,0-.629.12.431.431,0,0,0,.124.61,4.322,4.322,0,0,0,2.86.66,2.243,2.243,0,0,1,2.024.858q-.008.028-.015.056a8.013,8.013,0,0,0-1.437.152,4.267,4.267,0,0,0-2.949,1.831.432.432,0,0,0,.162.6.461.461,0,0,0,.62-.157c.826-1.369,2.844-1.537,3.645-1.547l.011.029a17.467,17.467,0,0,0-5.918,7.092,10.143,10.143,0,0,0-.809,4.8,9.721,9.721,0,0,0-1.316-.1V17.92a1.3,1.3,0,0,0-1.315-1.275H9.112A1.3,1.3,0,0,0,7.8,17.92V28.153a1.3,1.3,0,0,0,1.315,1.275h2.08a1.3,1.3,0,0,0,1.315-1.275v-.125l4.538,1.638a5.582,5.582,0,0,0,1.9.332h6.762a5.564,5.564,0,0,0,2.915-.82c9.02-5.544,8.473-5.2,8.525-5.244a1.843,1.843,0,0,0,.316-2.463ZM26.731,6.461a10.122,10.122,0,0,1-4.926,0c-.711-.174-.505-1.4.259-1.218a9.107,9.107,0,0,0,4.408,0C27.222,5.06,27.453,6.284,26.731,6.461ZM20.791,1.108l.011.005a1.65,1.65,0,0,0,1.768-.08c.772-.49.856.3,1.87.3a1.606,1.606,0,0,0,.954-.3.749.749,0,0,1,.916,0,1.659,1.659,0,0,0,1.775.079c.093.326-.118,1.3-1.462,3.237a9.512,9.512,0,0,1-4.377.033C20.9,2.417,20.7,1.436,20.791,1.108ZM36.57,23.254l-8.433,5.18a4.638,4.638,0,0,1-2.43.684H18.945a4.652,4.652,0,0,1-1.584-.276L12.508,27.09V22.359a.453.453,0,0,0-.906,0v5.794a.4.4,0,0,1-.409.4H9.112a.4.4,0,0,1-.409-.4V17.921a.4.4,0,0,1,.409-.4h2.08a.4.4,0,0,1,.409.4V20.3a.453.453,0,0,0,.906,0v-1.24c3.749.028,4.592,1.943,7.16,2.3h.012l5.013.56a1.9,1.9,0,0,1,1.651,1.654l-.006.836H21.662a.44.44,0,1,0,0,.879h5.125a.482.482,0,0,0,.181-.037l8.245-3.519c.593-.255,1.134-.292,1.5.23A.981.981,0,0,1,36.57,23.254Z" transform="translate(-7.797 0.001)" fill="#fff" stroke="#fff" stroke-width="0.9"/>
    <path id="Path_6970" data-name="Path 6970" d="M242.367,166.165a.439.439,0,0,0,.439-.439V165a2.574,2.574,0,0,0,2.11-2.13,2.253,2.253,0,0,0-1.552-2.578c-.2-.071-.386-.139-.557-.2v-2.8a1.807,1.807,0,0,1,.855.375.439.439,0,0,0,.593-.648,2.723,2.723,0,0,0-1.448-.614v-.625a.439.439,0,1,0-.879,0v.66a3.234,3.234,0,0,0-.326.08,2.124,2.124,0,0,0-1.454,1.668,1.858,1.858,0,0,0,.6,1.831,5.323,5.323,0,0,0,1.176.665v3.474a2.333,2.333,0,0,1-1.366-.474.439.439,0,1,0-.481.735,3.218,3.218,0,0,0,1.847.617v.7A.439.439,0,0,0,242.367,166.165Zm-1.073-6.845a.99.99,0,0,1-.283-.977,1.257,1.257,0,0,1,.844-.989l.072-.02v2.373A3.7,3.7,0,0,1,241.294,159.319Zm1.777,1.8a1.383,1.383,0,0,1,.979,1.6,1.711,1.711,0,0,1-1.243,1.377v-3.076Z" transform="translate(-225.765 -146.231)" fill="#fff" stroke="#fff" stroke-width="0.9"/>
  </g>
</svg>
