<svg xmlns="http://www.w3.org/2000/svg" width="18.43" height="18.304" viewBox="0 0 18.43 18.304">
  <g id="edit-profile" transform="translate(0.15 -0.111)">
    <path id="Path_7014" data-name="Path 7014" d="M16.607,48.717a.449.449,0,0,0-.448.451v4a1.35,1.35,0,0,1-1.344,1.352H2.241A1.35,1.35,0,0,1,.9,53.169V41.425a1.35,1.35,0,0,1,1.344-1.352H6.22a.451.451,0,0,0,0-.9H2.241A2.25,2.25,0,0,0,0,41.425V53.169a2.25,2.25,0,0,0,2.241,2.253H14.815a2.25,2.25,0,0,0,2.241-2.253v-4A.449.449,0,0,0,16.607,48.717Zm0,0" transform="translate(0 -37.158)" fill="#ff5934" stroke="#ff5934" stroke-width="0.3"/>
    <path id="Path_7015" data-name="Path 7015" d="M120.287.855a2.028,2.028,0,0,0-2.868,0l-8.04,8.04a.451.451,0,0,0-.116.2l-1.057,3.817a.451.451,0,0,0,.555.555l3.817-1.057a.45.45,0,0,0,.2-.116l8.04-8.04a2.03,2.03,0,0,0,0-2.868Zm-9.926,8.333,6.58-6.58,2.122,2.122-6.58,6.58Zm-.424.851,1.7,1.7-2.345.65Zm10.241-6.424-.478.478L117.578,1.97l.478-.478a1.127,1.127,0,0,1,1.593,0l.529.529A1.128,1.128,0,0,1,120.179,3.614Zm0,0" transform="translate(-103.41 0)" fill="#ff5934" stroke="#ff5934" stroke-width="0.3"/>
  </g>
</svg>
