<svg xmlns="http://www.w3.org/2000/svg" width="70" height="70.004" viewBox="0 0 70 70.004">
  <path id="event" d="M0,70V24.7H70V70ZM18.624,45.34A16.376,16.376,0,1,0,35,28.964,16.395,16.395,0,0,0,18.624,45.34Zm4.1,0A12.275,12.275,0,1,1,35,57.614,12.288,12.288,0,0,1,22.725,45.34Zm3.809.524,6.744,6.744L43.465,42.422l-2.9-2.9-7.286,7.286-3.844-3.844ZM0,20.6V6.977H10.058V8.044a6.991,6.991,0,1,0,13.982,0V6.977H45.96V8.044a6.991,6.991,0,1,0,13.982,0V6.977H70V20.6ZM50.062,8.044V2.889a2.889,2.889,0,0,1,5.779,0V8.044a2.889,2.889,0,0,1-5.779,0Zm-35.9,0V2.889a2.889,2.889,0,0,1,5.779,0V8.044a2.889,2.889,0,1,1-5.779,0Z"/>
</svg>
