<svg xmlns="http://www.w3.org/2000/svg" width="19.997" height="14.998" viewBox="0 0 19.997 14.998">
  <path id="eye" d="M3197.623,24690.873a.413.413,0,0,1,0-.586l14.167-14.166a.416.416,0,0,1,.586.59l-2.3,2.3a15.25,15.25,0,0,1,4.848,4.248.411.411,0,0,1-.023.506c-.191.229-4.764,5.564-9.9,5.564a9.6,9.6,0,0,1-4.174-1.064l-2.612,2.611a.429.429,0,0,1-.3.121A.4.4,0,0,1,3197.623,24690.873Zm5.345-4.754a3.288,3.288,0,0,0,2.031.709,3.333,3.333,0,0,0,3.333-3.332,3.286,3.286,0,0,0-.711-2.031Zm-7.869-2.354a.421.421,0,0,1,0-.539c.19-.223,4.769-5.559,9.9-5.559a10.054,10.054,0,0,1,3.449.619l-2.147,2.141a3.4,3.4,0,0,0-1.3-.264,3.331,3.331,0,0,0-3.068,4.633l-2.612,2.613A20.86,20.86,0,0,1,3195.1,24683.766Z" transform="translate(-3195.001 -24676)" fill="#4f5164"/>
</svg>
