<svg xmlns="http://www.w3.org/2000/svg" width="16.5" height="13.5" viewBox="0 0 16.5 13.5">
  <path id="folder" d="M15.331,9.745H14.4V8.082a.727.727,0,0,0-.729-.725h-6.6L5.737,5.5H.729A.728.728,0,0,0,0,6.225v11.59H0a.672.672,0,0,0,.139.418.68.68,0,0,0,.543.267H12.62a.677.677,0,0,0,.653-.481L16,10.58v-.047A.712.712,0,0,0,15.331,9.745ZM.533,6.225a.2.2,0,0,1,.2-.194H5.463L6.8,7.888h6.875a.2.2,0,0,1,.2.194V9.745H3.395a.684.684,0,0,0-.653.481L.533,16.218ZM12.765,17.859a.151.151,0,0,1-.145.111H.684a.147.147,0,0,1-.119-.059A.143.143,0,0,1,.532,17.8l2.718-7.416a.151.151,0,0,1,.145-.111H15.331c.1,0,.127.145.134.217Z" transform="translate(0.25 -5.25)" stroke="#707070" stroke-width="0.5" opacity="0.2"/>
</svg>
