<svg xmlns="http://www.w3.org/2000/svg" width="15" height="18" viewBox="0 0 15 18">
  <path id="forum" d="M6.3,18a1.94,1.94,0,0,1-.725-.149L4,17.215a1.539,1.539,0,0,1-1.007-1.073,1.5,1.5,0,0,1,.482-1.376L5.8,12.417a1.639,1.639,0,0,1,1.1-.59.758.758,0,0,1,.545.223,1.562,1.562,0,0,1,.344,1.169L7.726,16.48A1.43,1.43,0,0,1,6.3,18Zm5.488-1.277a1.538,1.538,0,0,1-1.337-.879L8.874,12.966a1.366,1.366,0,0,1-.163-1.358.865.865,0,0,1,.8-.379,2.432,2.432,0,0,1,.761.143l3.168,1.066a1.547,1.547,0,0,1,1.072,1.013,1.5,1.5,0,0,1-.4,1.4l-1.108,1.263a1.637,1.637,0,0,1-1.218.608ZM.39,12.105a1.571,1.571,0,0,1-.383-1.232L.141,9.218A1.434,1.434,0,0,1,1.564,7.781a1.884,1.884,0,0,1,.808.194L5.386,9.4c.648.307.987.706.953,1.124s-.432.761-1.121.965l-3.206.95a2.033,2.033,0,0,1-.576.088A1.417,1.417,0,0,1,.39,12.105Zm9.479-1.77A1,1,0,0,1,8.88,9.87C8.637,9.393,9,8.809,9.236,8.5l2.02-2.6a1.6,1.6,0,0,1,1.257-.68,1.569,1.569,0,0,1,1.31.8l.892,1.416a1.49,1.49,0,0,1,.167,1.444,1.565,1.565,0,0,1-1.221.837l-3.3.57a2.909,2.909,0,0,1-.491.046ZM7.276,9.328c-.331,0-.665-.286-.994-.837L3,2.993A1.6,1.6,0,0,1,2.854,1.51a1.669,1.669,0,0,1,1.2-.923L6.3.057A2.094,2.094,0,0,1,6.783,0,1.585,1.585,0,0,1,7.933.461a1.657,1.657,0,0,1,.438,1.267l-.339,6.35c-.04.743-.255,1.16-.639,1.238a.554.554,0,0,1-.111.011ZM6.783,0h0Z"/>
</svg>
