<svg id="github" xmlns="http://www.w3.org/2000/svg" width="16.754" height="16.405" viewBox="0 0 16.754 16.405">
  <g id="Group_1734" data-name="Group 1734" transform="translate(0 0)">
    <path id="Path_6954" data-name="Path 6954" d="M8.376,5.329A8.415,8.415,0,0,0,5.73,21.72c.419.077.572-.182.572-.405,0-.2-.007-.729-.012-1.43-2.33.508-2.822-1.128-2.822-1.128a2.221,2.221,0,0,0-.93-1.23c-.761-.521.057-.511.057-.511a1.759,1.759,0,0,1,1.283.867,1.78,1.78,0,0,0,2.439.7,1.8,1.8,0,0,1,.532-1.125c-1.86-.213-3.816-.934-3.816-4.156A3.26,3.26,0,0,1,3.9,11.042a3.031,3.031,0,0,1,.082-2.225s.7-.226,2.3.862a7.907,7.907,0,0,1,4.195,0c1.6-1.088,2.3-.862,2.3-.862a3.035,3.035,0,0,1,.084,2.225,3.254,3.254,0,0,1,.861,2.258c0,3.23-1.958,3.941-3.824,4.15a2.012,2.012,0,0,1,.569,1.557c0,1.125-.01,2.031-.01,2.307,0,.225.151.487.576.4A8.416,8.416,0,0,0,8.376,5.329Z" transform="translate(0 -5.329)" fill="#ff5934"/>
  </g>
</svg>
