<svg xmlns="http://www.w3.org/2000/svg" width="11.999" height="12" viewBox="0 0 11.999 12">
  <g id="glove" transform="translate(-0.016 0.002)">
    <g id="Group_7220" data-name="Group 7220" transform="translate(0.016 -0.002)">
      <path id="Path_15772" data-name="Path 15772" d="M10.907,2.535a.1.1,0,0,0,0-.012c-.015-.021-.033-.04-.049-.061q-.168-.229-.356-.441c-.034-.039-.069-.077-.1-.114Q10.2,1.7,9.991,1.512c-.026-.023-.051-.047-.077-.07A6.008,6.008,0,0,0,8.777.674L8.727.65A5.962,5.962,0,0,0,8.169.4C8.126.386,8.087.372,8.047.359Q7.793.268,7.532.2c-.051-.014-.1-.028-.155-.04-.171-.04-.343-.07-.518-.1C6.806.056,6.753.046,6.7.039a5.636,5.636,0,0,0-1.36,0c-.054.006-.106.017-.159.024-.175.025-.349.055-.518.1-.052.012-.1.026-.155.04q-.263.069-.514.16L3.87.4A5.958,5.958,0,0,0,3.313.65l-.05.024a6.01,6.01,0,0,0-1.142.768c-.026.023-.051.047-.077.07a5.576,5.576,0,0,0-.406.395c-.035.038-.069.076-.1.114q-.188.211-.356.441c-.015.021-.034.039-.049.061l-.005.012a5.963,5.963,0,0,0,0,6.927l.005.012c.015.021.033.04.049.061q.168.229.356.441c.034.039.069.077.1.114q.194.207.406.395c.026.023.051.047.077.07a6.008,6.008,0,0,0,1.138.768l.05.024a5.962,5.962,0,0,0,.557.248c.043.015.082.03.123.043q.253.091.514.16c.051.014.1.028.155.04.171.04.343.07.518.1.053.008.105.018.159.024a5.636,5.636,0,0,0,1.36,0c.054-.006.106-.017.159-.024.175-.025.349-.055.518-.1.052-.012.1-.026.155-.04q.263-.069.514-.16l.123-.043a5.958,5.958,0,0,0,.557-.248l.05-.024a6.009,6.009,0,0,0,1.138-.768c.026-.023.051-.047.077-.07a5.458,5.458,0,0,0,.406-.395c.035-.038.069-.076.1-.114q.188-.212.356-.441c.015-.021.034-.039.049-.061l.005-.012A5.963,5.963,0,0,0,10.907,2.535Zm-.489.811a5.1,5.1,0,0,1,.723,2.224H8.573a8,8,0,0,0-.24-1.513A7.7,7.7,0,0,0,10.417,3.346ZM7.109.972,7.18.991a4.613,4.613,0,0,1,.454.129l.067.025q.221.077.435.171l.074.036q.2.1.4.21l.086.052q.185.113.36.242c.03.022.06.043.09.067a3.911,3.911,0,0,1,.328.276c.027.025.056.049.083.075.11.1.214.214.316.328.013.015.027.029.039.043a7.191,7.191,0,0,1-1.828.587A10.9,10.9,0,0,0,6.93.943C6.989.953,7.05.959,7.109.972Zm-2.79,4.6A7.153,7.153,0,0,1,4.555,4.2a12.284,12.284,0,0,0,1.464.086A12.312,12.312,0,0,0,7.483,4.2,7.14,7.14,0,0,1,7.718,5.57Zm3.4.857A7.153,7.153,0,0,1,7.482,7.8a12.547,12.547,0,0,0-2.928,0,7.142,7.142,0,0,1-.235-1.372Zm-1.7-5.293A10.354,10.354,0,0,1,7.213,3.363a11.346,11.346,0,0,1-1.195.063,11.432,11.432,0,0,1-1.193-.064A10.436,10.436,0,0,1,6.018,1.133ZM2.164,2.6c.1-.114.206-.224.316-.328.027-.026.055-.05.083-.075q.159-.144.328-.276c.03-.023.06-.043.09-.067q.175-.129.36-.242l.086-.052q.2-.114.4-.21L3.9,1.316q.213-.1.435-.171c.022-.008.043-.017.067-.025.149-.05.3-.091.454-.129C4.881.985,4.9.977,4.928.972c.059-.013.12-.019.179-.03A10.9,10.9,0,0,0,3.953,3.233a7.191,7.191,0,0,1-1.828-.587Zm-.545.744A7.7,7.7,0,0,0,3.7,4.057a8,8,0,0,0-.24,1.513H.9A5.1,5.1,0,0,1,1.619,3.346Zm0,5.3A5.1,5.1,0,0,1,.9,6.427H3.464A8,8,0,0,0,3.7,7.94,7.7,7.7,0,0,0,1.619,8.651Zm3.309,2.374-.071-.019a4.613,4.613,0,0,1-.454-.129l-.067-.025q-.221-.077-.435-.171l-.074-.036q-.2-.1-.4-.21l-.086-.052q-.185-.113-.36-.242c-.03-.022-.06-.043-.09-.067A3.912,3.912,0,0,1,2.562,9.8c-.027-.025-.056-.049-.083-.075-.11-.1-.214-.214-.316-.328-.013-.015-.027-.029-.039-.043a7.191,7.191,0,0,1,1.828-.587,10.9,10.9,0,0,0,1.154,2.29C5.047,11.043,4.986,11.037,4.928,11.024Zm1.091-.161A10.354,10.354,0,0,1,4.823,8.634a11.16,11.16,0,0,1,2.389,0h0A10.433,10.433,0,0,1,6.018,10.863ZM9.872,9.394c-.1.114-.206.224-.316.328-.027.026-.055.05-.083.075q-.159.145-.328.276l-.09.067q-.175.129-.36.242l-.086.052q-.195.114-.4.21l-.074.036q-.213.1-.435.171c-.022.008-.043.017-.067.025-.149.05-.3.091-.454.129-.024.006-.047.013-.072.018-.059.013-.12.019-.179.03a10.9,10.9,0,0,0,1.154-2.29,7.191,7.191,0,0,1,1.828.587Zm.545-.744A7.7,7.7,0,0,0,8.333,7.94a8,8,0,0,0,.24-1.513h2.568A5.1,5.1,0,0,1,10.417,8.651Z" transform="translate(-0.016 0.002)" fill="#fff"/>
    </g>
  </g>
</svg>
