<svg xmlns="http://www.w3.org/2000/svg" width="70" height="61.078" viewBox="0 0 70 61.078">
  <path id="groups" d="M21.331,60.976a4.8,4.8,0,0,1-4.788-4.788c0-9.9-1.443-17.984,6.057-23.991,4.482-3.7,9.678-4.2,15.656-3.705,6.77,0,15.2,6.753,15.2,16.491,0,12.26.154,11.853-.407,13.135-1.148,2.541-2.041,2.96-11.209,2.96C37.337,61.077,30.837,60.976,21.331,60.976Zm36.228-4.788c0-11.164,1.2-18.393-5.9-25.647,2.956-2.422,5.622-2.1,9.063-2.1A9.266,9.266,0,0,1,70,37.665V52.453A4.161,4.161,0,0,1,65.835,56.6c-3.463,0-5.492.025-6.677.025C57.185,56.626,57.559,56.557,57.559,56.188ZM4.021,56.6A4.017,4.017,0,0,1,0,52.6V37.665a9.266,9.266,0,0,1,9.283-9.227c3.423,0,6.1-.321,9.063,2.1-7.158,7.308-5.9,15.067-5.9,25.647,0,.368.456.437-1.582.437C9.654,56.625,7.578,56.6,4.021,56.6ZM23.105,11.895A11.895,11.895,0,1,1,35,23.789,11.894,11.894,0,0,1,23.105,11.895Zm28.437,4.375a7.52,7.52,0,1,1,7.52,7.52A7.519,7.519,0,0,1,51.543,16.269Zm-48.125,0a7.52,7.52,0,1,1,7.52,7.52A7.519,7.519,0,0,1,3.418,16.269Z"/>
</svg>
