<svg xmlns="http://www.w3.org/2000/svg" width="16.86" height="15" viewBox="0 0 16.86 15">
  <path id="heartf" d="M8.43,15a.989.989,0,0,1-.652-.245C7.1,14.16,6.44,13.6,5.861,13.106l0,0A35.656,35.656,0,0,1,1.672,9.175,6.275,6.275,0,0,1,0,5.067a5.27,5.27,0,0,1,1.338-3.6A4.534,4.534,0,0,1,4.71,0,4.241,4.241,0,0,1,7.359.914,5.42,5.42,0,0,1,8.43,2.033,5.42,5.42,0,0,1,9.5.914,4.241,4.241,0,0,1,12.15,0a4.534,4.534,0,0,1,3.372,1.468,5.27,5.27,0,0,1,1.337,3.6,6.275,6.275,0,0,1-1.672,4.108A35.648,35.648,0,0,1,11,13.1c-.58.494-1.238,1.055-1.921,1.652A.989.989,0,0,1,8.43,15Z" fill="#ff5934"/>
</svg>
