<svg xmlns="http://www.w3.org/2000/svg" width="14.997" height="14.997" viewBox="0 0 14.997 14.997">
  <g id="imoji" transform="translate(0 0)" opacity="0.204">
    <path id="Path_7027" data-name="Path 7027" d="M12.8,2.194a7.5,7.5,0,1,0,0,10.609A7.51,7.51,0,0,0,12.8,2.194Zm-.819,9.791a6.345,6.345,0,1,1,0-8.973A6.352,6.352,0,0,1,11.985,11.985ZM4.7,5.468a.877.877,0,1,1,.877.877A.877.877,0,0,1,4.7,5.468Zm3.976,0a.877.877,0,1,1,.877.877A.877.877,0,0,1,8.676,5.468Zm2.073,3.591a3.5,3.5,0,0,1-3.242,2.069A3.477,3.477,0,0,1,4.246,9.049a.424.424,0,1,1,.784-.325A2.632,2.632,0,0,0,7.507,10.28,2.653,2.653,0,0,0,9.97,8.723a.424.424,0,1,1,.779.337Z" transform="translate(0 0)"/>
  </g>
</svg>
