<svg id="instagram" xmlns="http://www.w3.org/2000/svg" width="16.402" height="16.405" viewBox="0 0 16.402 16.405">
  <path id="Path_6773" data-name="Path 6773" d="M16.809,4.823a6,6,0,0,0-.381-1.99,4.2,4.2,0,0,0-2.4-2.4,6.01,6.01,0,0,0-1.99-.381C11.159.01,10.88,0,8.653,0S6.147.01,5.272.048a6,6,0,0,0-1.99.381,4,4,0,0,0-1.455.949A4.039,4.039,0,0,0,.881,2.83,6.011,6.011,0,0,0,.5,4.82C.458,5.7.449,5.977.449,8.2S.458,10.71.5,11.585a5.994,5.994,0,0,0,.381,1.99,4.2,4.2,0,0,0,2.4,2.4,6.011,6.011,0,0,0,1.99.381c.875.039,1.154.048,3.381.048s2.506-.01,3.381-.048a5.993,5.993,0,0,0,1.99-.381,4.2,4.2,0,0,0,2.4-2.4,6.015,6.015,0,0,0,.381-1.99c.038-.875.048-1.154.048-3.381s0-2.506-.042-3.381Zm-1.477,6.7a4.5,4.5,0,0,1-.282,1.522A2.721,2.721,0,0,1,13.492,14.6a4.512,4.512,0,0,1-1.522.282c-.865.039-1.125.048-3.314.048s-2.452-.01-3.314-.048A4.494,4.494,0,0,1,3.82,14.6a2.524,2.524,0,0,1-.942-.612,2.551,2.551,0,0,1-.612-.942,4.513,4.513,0,0,1-.282-1.522c-.039-.865-.048-1.125-.048-3.314s.01-2.452.048-3.314a4.494,4.494,0,0,1,.282-1.522,2.493,2.493,0,0,1,.615-.942,2.547,2.547,0,0,1,.942-.612,4.516,4.516,0,0,1,1.522-.282C6.211,1.5,6.47,1.49,8.659,1.49s2.452.01,3.314.048A4.5,4.5,0,0,1,13.5,1.82a2.523,2.523,0,0,1,.942.612,2.55,2.55,0,0,1,.612.942A4.515,4.515,0,0,1,15.332,4.9c.038.865.048,1.125.048,3.314s-.01,2.445-.048,3.311Zm0,0" transform="translate(-0.449 0)" fill="#ff5934"/>
  <path id="Path_6774" data-name="Path 6774" d="M129.16,124.5a4.211,4.211,0,1,0,4.211,4.211A4.212,4.212,0,0,0,129.16,124.5Zm0,6.942a2.731,2.731,0,1,1,2.731-2.731A2.732,2.732,0,0,1,129.16,131.442Zm0,0" transform="translate(-120.955 -120.506)" fill="#ff5934"/>
  <path id="Path_6775" data-name="Path 6775" d="M364.419,89.587a.985.985,0,1,1-.985-.985A.985.985,0,0,1,364.419,89.587Zm0,0" transform="translate(-350.85 -85.763)" fill="#ff5934"/>
</svg>
