<svg xmlns="http://www.w3.org/2000/svg" width="9" height="14" viewBox="0 0 9 14">
  <g id="location" transform="translate(-85.333)">
    <g id="Group_7141" data-name="Group 7141" transform="translate(85.333)">
      <path id="Path_15746" data-name="Path 15746" d="M89.833,0a4.591,4.591,0,0,0-4.5,4.667,4.813,4.813,0,0,0,.54,2.218l3.714,6.965a.277.277,0,0,0,.492,0l3.715-6.968a4.813,4.813,0,0,0,.539-2.215A4.591,4.591,0,0,0,89.833,0Zm0,7a2.3,2.3,0,0,1-2.25-2.333,2.251,2.251,0,1,1,4.5,0A2.3,2.3,0,0,1,89.833,7Z" transform="translate(-85.333)" fill="#ff5934"/>
    </g>
  </g>
</svg>
