<svg xmlns="http://www.w3.org/2000/svg" width="43" height="50" viewBox="0 0 43 50">
  <g id="meida-play" transform="translate(-34.883 0)">
    <g id="Group_6646" data-name="Group 6646" transform="translate(34.883 0)">
      <path id="Path_7098" data-name="Path 7098" d="M74.649,19.23l-29.4-18.2A6.692,6.692,0,0,0,38.366.88a6.751,6.751,0,0,0-3.483,5.961V43.083A6.886,6.886,0,0,0,41.667,50h.03a6.8,6.8,0,0,0,3.525-1.065A1.947,1.947,0,0,0,43.2,45.606a2.97,2.97,0,0,1-1.512.495,3.023,3.023,0,0,1-2.922-3.017V6.841a2.916,2.916,0,0,1,4.444-2.495l29.4,18.2a2.936,2.936,0,0,1-.013,5L51.341,40.619a1.947,1.947,0,0,0,2.027,3.326L74.625,30.874a6.844,6.844,0,0,0,.025-11.643Z" transform="translate(-34.883 0)" fill="#fff"/>
    </g>
  </g>
</svg>
