<svg xmlns="http://www.w3.org/2000/svg" width="14.932" height="14.932" viewBox="0 0 14.932 14.932">
  <path id="media" d="M13.937,14.761l-1.925-1.924a.584.584,0,0,1,.825-.825l1.924,1.925a.583.583,0,1,1-.824.824ZM0,8.837a6.09,6.09,0,0,1,12.128-.806.583.583,0,1,1-1.156.154A4.924,4.924,0,1,0,6.1,13.766,4.888,4.888,0,0,0,8.1,13.34.583.583,0,1,1,8.579,14.4,6.1,6.1,0,0,1,0,8.837Zm9.828,4.345V11.549A1.752,1.752,0,0,1,11.579,9.8h1.662a.583.583,0,1,1,0,1.166H11.579a.584.584,0,0,0-.584.583v1.634a.583.583,0,0,1-1.166,0Zm-4.754-1.9c0-.537.24-1.459.992-1.459s.992.922.992,1.459-.27,1.458-.992,1.458S5.074,11.823,5.074,11.287ZM6.416,7.758a1.75,1.75,0,1,1,1.75,1.75A1.752,1.752,0,0,1,6.416,7.758Zm1.166,0a.583.583,0,1,0,.583-.583A.584.584,0,0,0,7.582,7.758Zm-5.307-.03a1.75,1.75,0,1,1,1.75,1.75A1.751,1.751,0,0,1,2.275,7.728Zm1.166,0a.583.583,0,1,0,.583-.583A.583.583,0,0,0,3.442,7.728ZM12.66,5.365a.584.584,0,0,1,.261-.783L14.088,4a.583.583,0,1,1,.522,1.043l-1.166.584a.585.585,0,0,1-.783-.261ZM11.254,3.708a.581.581,0,0,1,0-.824l.962-.963a.583.583,0,0,1,.824.825l-.962.962a.582.582,0,0,1-.824,0ZM9.544,2.3a.583.583,0,0,1-.269-.779l.584-1.2a.583.583,0,1,1,1.048.511l-.583,1.2a.583.583,0,0,1-.525.328A.574.574,0,0,1,9.544,2.3Z" transform="translate(0 0)" fill="#4f5164"/>
</svg>
