<svg xmlns="http://www.w3.org/2000/svg" width="18" height="18" viewBox="0 0 18 18">
  <path id="member_newsfed" d="M6.443,17.633a15.364,15.364,0,0,1-1.362-3.71,16.186,16.186,0,0,0,8.276,2.955,9.05,9.05,0,0,1-6.914.754ZM.039,8.156a16.4,16.4,0,0,0,3.815,4.808,14.283,14.283,0,0,0,1.158,4.108A9,9,0,0,1,.039,8.156Zm4.828,4.282A8.3,8.3,0,0,1,5.59,8.307a16.258,16.258,0,0,0,11.785,4,9.009,9.009,0,0,1-2.55,3.554q-.158,0-.315,0A15.183,15.183,0,0,1,4.867,12.438ZM.381,6.394A8.906,8.906,0,0,1,1.845,3.54,16.341,16.341,0,0,0,4.784,7.554a9.156,9.156,0,0,0-.993,3.919A15.331,15.331,0,0,1,.381,6.394Zm5.726.962A10.964,10.964,0,0,1,9.14,4.264a8.837,8.837,0,0,0,4.4,2.293,4.281,4.281,0,0,0,3.81-.923,9.08,9.08,0,0,1,.374,5.589q-.7.064-1.4.064A15.2,15.2,0,0,1,6.107,7.356ZM2.593,2.68l.043-.044A8.943,8.943,0,0,1,6.87.253,6.476,6.476,0,0,0,8.407,3.49,12.034,12.034,0,0,0,5.334,6.608,15.3,15.3,0,0,1,2.593,2.68ZM14.583,5.594a5.049,5.049,0,0,1-.862-.077,7.7,7.7,0,0,1-3.667-1.847l.018-.011a16.127,16.127,0,0,1,4.4-1.808,9.091,9.091,0,0,1,2.379,2.737,2.6,2.6,0,0,1-2.266,1ZM7.91.065A9,9,0,0,1,13.3,1.09,16.654,16.654,0,0,0,9.294,2.9,5.5,5.5,0,0,1,7.91.065Z"/>
</svg>
