<svg xmlns="http://www.w3.org/2000/svg" width="18" height="18" viewBox="0 0 18 18">
  <g id="music" transform="translate(-2.561)">
    <g id="Group_9566" data-name="Group 9566" transform="translate(2.56)">
      <path id="Path_23162" data-name="Path 23162" d="M19.512,4.164A8.3,8.3,0,0,0,12.307,0H10.79A8.261,8.261,0,0,0,3.608,4.164,7.874,7.874,0,0,0,2.56,8.13v5.045a4.952,4.952,0,0,0,4.885,4.8.758.758,0,0,0,.781-.771V8.614a.758.758,0,0,0-.781-.771A4.793,4.793,0,0,0,4.1,9.231V8.108a6.545,6.545,0,0,1,.848-3.217A6.757,6.757,0,0,1,10.813,1.5H12.33a6.729,6.729,0,0,1,5.844,3.393,6.608,6.608,0,0,1,.848,3.217V9.231a4.753,4.753,0,0,0-3.346-1.388.758.758,0,0,0-.781.771v8.614a.758.758,0,0,0,.781.771,4.987,4.987,0,0,0,4.885-4.825V8.13A7.994,7.994,0,0,0,19.512,4.164Z" transform="translate(-2.56)"/>
    </g>
  </g>
</svg>
