<svg xmlns="http://www.w3.org/2000/svg" width="25.336" height="25.336" viewBox="0 0 25.336 25.336">
  <path id="offcanvas2" d="M11037.705,24441.455a1.006,1.006,0,0,1,0-1.412l23.335-23.334a1,1,0,0,1,1.417,1.412l-23.335,23.334a1,1,0,0,1-1.417,0Zm10.606-.705a1,1,0,0,1,0-1.412l12.729-12.729a1,1,0,0,1,1.417,1.412l-12.729,12.729a1,1,0,0,1-1.417,0Zm-9.895-9.9a.994.994,0,0,1,0-1.412l12.729-12.729a1,1,0,0,1,1.411,1.412l-12.729,12.729a1,1,0,0,1-1.411,0Z" transform="translate(-11037.416 -24416.414)" fill="#fff"/>
</svg>
