<svg xmlns="http://www.w3.org/2000/svg" width="30.597" height="30.606" viewBox="0 0 30.597 30.606">
  <g id="paper" transform="translate(-404.75 -2879.64)">
    <g id="Group_1746" data-name="Group 1746" transform="translate(408.164 2880)">
      <g id="Group_1745" data-name="Group 1745">
        <path id="Path_6962" data-name="Path 6962" d="M80.537.077a.586.586,0,0,0-.589,0L69.212,6.43a.586.586,0,1,0,.6,1.009l7.7-4.555L63.163,17.771l-7.136-2.183,9.313-5.507a.586.586,0,0,0-.6-1.009L54.287,15.255a.586.586,0,0,0,.127,1.065l8.523,2.607,3.76,6.844a.139.139,0,0,0,.012.018.584.584,0,0,0,.911.118l4.323-4.225,8.132,2.488a.586.586,0,0,0,.757-.56V.586A.586.586,0,0,0,80.537.077ZM66.728,19.288a.586.586,0,0,0-.1.334v3.584l-2.567-4.673L75.418,6.744ZM67.8,24.1V20.414l2.87.878Zm11.865-1.279L68.148,19.3,79.661,2.677Z" transform="translate(-53.999 0)" fill="#fff" stroke="#fff" stroke-width="0.7"/>
      </g>
    </g>
    <g id="Group_1748" data-name="Group 1748" transform="translate(408.164 2900.191)">
      <g id="Group_1747" data-name="Group 1747">
        <path id="Path_6963" data-name="Path 6963" d="M60.469,344.82a.586.586,0,0,0-.829,0l-5.469,5.469a.586.586,0,0,0,.829.829l5.469-5.469A.586.586,0,0,0,60.469,344.82Z" transform="translate(-53.999 -344.648)" fill="#fff" stroke="#fff" stroke-width="0.5"/>
      </g>
    </g>
    <g id="Group_1750" data-name="Group 1750" transform="translate(405 2907.477)">
      <g id="Group_1749" data-name="Group 1749">
        <path id="Path_6964" data-name="Path 6964" d="M2.348,469.172a.586.586,0,0,0-.829,0L.172,470.52a.586.586,0,1,0,.829.829L2.348,470A.586.586,0,0,0,2.348,469.172Z" transform="translate(0 -469.001)" fill="#fff" stroke="#fff" stroke-width="0.5"/>
      </g>
    </g>
    <g id="Group_1752" data-name="Group 1752" transform="translate(412.357 2908.791)">
      <g id="Group_1751" data-name="Group 1751">
        <path id="Path_6965" data-name="Path 6965" d="M126.58,491.582a.585.585,0,1,0,.172.414A.59.59,0,0,0,126.58,491.582Z" transform="translate(-125.58 -491.41)" fill="#fff" stroke="#fff" stroke-width="0.5"/>
      </g>
    </g>
    <g id="Group_1754" data-name="Group 1754" transform="translate(413.82 2904.432)">
      <g id="Group_1753" data-name="Group 1753">
        <path id="Path_6966" data-name="Path 6966" d="M154.431,417.178a.586.586,0,0,0-.829,0l-2.9,2.9a.586.586,0,1,0,.829.829l2.9-2.9A.586.586,0,0,0,154.431,417.178Z" transform="translate(-150.534 -417.006)" fill="#fff" stroke="#fff" stroke-width="0.5"/>
      </g>
    </g>
    <g id="Group_1756" data-name="Group 1756" transform="translate(423.81 2904.209)">
      <g id="Group_1755" data-name="Group 1755">
        <path id="Path_6967" data-name="Path 6967" d="M324.958,413.383a.586.586,0,0,0-.829,0l-2.9,2.9a.586.586,0,0,0,.829.829l2.9-2.9A.586.586,0,0,0,324.958,413.383Z" transform="translate(-321.053 -413.211)" fill="#fff" stroke="#fff" stroke-width="0.5"/>
      </g>
    </g>
    <g id="Group_1758" data-name="Group 1758" transform="translate(420.609 2887.814)">
      <g id="Group_1757" data-name="Group 1757">
        <path id="Path_6968" data-name="Path 6968" d="M267.43,133.552a.586.586,0,1,0,.172.415A.59.59,0,0,0,267.43,133.552Z" transform="translate(-266.43 -133.38)" fill="#fff" stroke="#fff" stroke-width="0.5"/>
      </g>
    </g>
  </g>
</svg>
