<svg xmlns="http://www.w3.org/2000/svg" width="23.999" height="24" viewBox="0 0 23.999 24">
  <g id="phone" transform="translate(-0.006)">
    <g id="Group_6327" data-name="Group 6327" transform="translate(0.006)">
      <path id="Path_6973" data-name="Path 6973" d="M18.253,59.711a1.682,1.682,0,0,0-2.542,0c-.594.589-1.189,1.179-1.773,1.778a.35.35,0,0,1-.489.09c-.385-.21-.794-.38-1.164-.609A18.438,18.438,0,0,1,7.84,56.924a10.531,10.531,0,0,1-1.593-2.552.366.366,0,0,1,.09-.469c.594-.574,1.174-1.164,1.758-1.753a1.688,1.688,0,0,0,0-2.6c-.464-.469-.929-.929-1.393-1.4s-.954-.964-1.438-1.438a1.692,1.692,0,0,0-2.542,0c-.6.589-1.174,1.194-1.783,1.773a2.894,2.894,0,0,0-.909,1.953A8.274,8.274,0,0,0,.662,54,21.639,21.639,0,0,0,4.5,60.4a23.768,23.768,0,0,0,7.871,6.158,11.384,11.384,0,0,0,4.36,1.269,3.2,3.2,0,0,0,2.742-1.044c.509-.569,1.084-1.089,1.623-1.633a1.7,1.7,0,0,0,.01-2.587Q19.687,61.132,18.253,59.711Z" transform="translate(-0.006 -43.835)" fill="#ff5934"/>
      <path id="Path_6974" data-name="Path 6974" d="M243.264,103.1l1.842-.314A8.266,8.266,0,0,0,238.114,96l-.26,1.852a6.389,6.389,0,0,1,5.41,5.245Z" transform="translate(-225.972 -91.204)" fill="#ff5934"/>
      <path id="Path_6975" data-name="Path 6975" d="M250.8,3.883A13.579,13.579,0,0,0,243.014,0l-.259,1.852a11.849,11.849,0,0,1,10.027,9.717l1.842-.314A13.679,13.679,0,0,0,250.8,3.883Z" transform="translate(-230.623)" fill="#ff5934"/>
    </g>
  </g>
</svg>
