<svg xmlns="http://www.w3.org/2000/svg" width="70" height="70" viewBox="0 0 70 70">
  <path id="photo" d="M5.68,0H64.317A5.689,5.689,0,0,1,70,5.682v37.1l-21.42-21.42a2.5,2.5,0,0,0-3.536,0L28.457,37.944,18.165,29.267a2.5,2.5,0,0,0-3.378.144L0,44.2V5.682A5.688,5.688,0,0,1,5.68,0ZM64.317,70A5.688,5.688,0,0,0,70,64.318V49.847L46.811,26.66,32.293,41.179,38.84,46.7a2.5,2.5,0,1,1-3.222,3.822l-8.592-7.244-.007-.006L16.7,34.569,0,51.266V64.318A5.687,5.687,0,0,0,5.68,70ZM25.5,20.368A5.994,5.994,0,1,0,19.5,14.374,6,6,0,0,0,25.5,20.368Z" transform="translate(0.001 0.001)" fill-rule="evenodd"/>
</svg>
