<svg id="play-video" xmlns="http://www.w3.org/2000/svg" width="60.39" height="60.39" viewBox="0 0 60.39 60.39">
  <path id="Path_6971" data-name="Path 6971" d="M57.048,16.375A30.463,30.463,0,0,0,48.131,5.9a1.229,1.229,0,1,0-1.461,1.976A27.994,27.994,0,0,1,54.864,17.5,27.432,27.432,0,0,1,57.932,30.2,27.737,27.737,0,1,1,30.195,2.458a1.229,1.229,0,1,0,0-2.458A30.178,30.178,0,1,0,57.048,16.375Z" fill="#fff"/>
  <path id="Path_6972" data-name="Path 6972" d="M107.286,78.346a1.229,1.229,0,0,0-.622,1.068v26.97a1.229,1.229,0,0,0,2.458,0V81.576l18.195,10.832-13.38,8.62a1.229,1.229,0,1,0,1.331,2.066L130.316,93.4a1.229,1.229,0,0,0-.037-2.089L108.522,78.358A1.229,1.229,0,0,0,107.286,78.346Z" transform="translate(-84.817 -62.171)" fill="#fff"/>
</svg>
