<svg xmlns="http://www.w3.org/2000/svg" width="16.472" height="16.001" viewBox="0 0 16.472 16.001">
  <path id="post-members" d="M-2390.935,15.274a2.855,2.855,0,0,0-2.573-3.061,2.234,2.234,0,0,0-1.107.3,7.567,7.567,0,0,1,.5,2.714.715.715,0,0,1-.7.727.715.715,0,0,1-.7-.727c0-2.942-2.035-5.335-4.538-5.335s-4.539,2.393-4.539,5.335a.715.715,0,0,1-.7.727.714.714,0,0,1-.7-.727,7.567,7.567,0,0,1,.5-2.714,3.5,3.5,0,0,1,.652-1.284,5.739,5.739,0,0,1,4.791-2.79,5.739,5.739,0,0,1,4.791,2.79,3.589,3.589,0,0,1,1.759-.475,4.279,4.279,0,0,1,3.977,4.515.715.715,0,0,1-.7.728A.716.716,0,0,1-2390.935,15.274Zm-5.334-8.738a2.717,2.717,0,0,1,2.667-2.764,2.716,2.716,0,0,1,2.667,2.764A2.717,2.717,0,0,1-2393.6,9.3,2.717,2.717,0,0,1-2396.269,6.535Zm1.4,0a1.287,1.287,0,0,0,1.263,1.309,1.287,1.287,0,0,0,1.263-1.309,1.287,1.287,0,0,0-1.263-1.309A1.287,1.287,0,0,0-2394.865,6.535Zm-8.754-2.942A3.532,3.532,0,0,1-2400.152,0a3.532,3.532,0,0,1,3.468,3.594,3.532,3.532,0,0,1-3.467,3.594A3.536,3.536,0,0,1-2403.619,3.594Zm1.4,0a2.1,2.1,0,0,0,2.064,2.139,2.1,2.1,0,0,0,2.064-2.139,2.1,2.1,0,0,0-2.064-2.139A2.105,2.105,0,0,0-2402.215,3.594Z" transform="translate(2406)" fill="#888da8"/>
</svg>
