<svg id="post-glove" xmlns="http://www.w3.org/2000/svg" width="16" height="16" viewBox="0 0 16 16">
  <g id="Group_6417" data-name="Group 6417">
    <path id="Path_7026" data-name="Path 7026" d="M13.657,2.343A8,8,0,0,0,2.343,13.657,8,8,0,0,0,13.657,2.343ZM6.483,1.1a10.237,10.237,0,0,0-.849.934A9.727,9.727,0,0,0,4.388,4.045H2.152A7.082,7.082,0,0,1,6.483,1.1ZM1.615,4.983h2.4a9.406,9.406,0,0,0-.474,2.549H.953A7.01,7.01,0,0,1,1.615,4.983ZM.953,8.469H3.542a9.4,9.4,0,0,0,.474,2.549h-2.4A7.01,7.01,0,0,1,.953,8.469Zm1.2,3.486H4.388a9.728,9.728,0,0,0,1.246,2.009,10.228,10.228,0,0,0,.849.934A7.082,7.082,0,0,1,2.151,11.955Zm5.38,2.633a9.215,9.215,0,0,1-1.165-1.21,8.929,8.929,0,0,1-.936-1.423h2.1Zm0-3.57H5.007a8.388,8.388,0,0,1-.526-2.549h3.05Zm0-3.486H4.481a8.388,8.388,0,0,1,.526-2.549H7.531Zm0-3.486H5.43A8.926,8.926,0,0,1,6.343,2.65,9.213,9.213,0,0,1,7.531,1.414Zm7.515,3.486H12.458a9.4,9.4,0,0,0-.474-2.549h2.4A7.009,7.009,0,0,1,15.047,7.531Zm-1.2-3.486H11.612a9.728,9.728,0,0,0-1.246-2.009A10.228,10.228,0,0,0,9.517,1.1,7.081,7.081,0,0,1,13.849,4.045ZM8.469,1.412a9.215,9.215,0,0,1,1.165,1.21,8.932,8.932,0,0,1,.936,1.423h-2.1Zm0,3.57h2.524a8.387,8.387,0,0,1,.526,2.549H8.469Zm0,3.486h3.05a8.388,8.388,0,0,1-.526,2.549H8.469Zm0,6.118V11.955h2.1a8.924,8.924,0,0,1-.914,1.395A9.212,9.212,0,0,1,8.469,14.586Zm1.049.312a10.237,10.237,0,0,0,.849-.934,9.727,9.727,0,0,0,1.246-2.009h2.236A7.082,7.082,0,0,1,9.517,14.9Zm4.867-3.88h-2.4a9.406,9.406,0,0,0,.474-2.549h2.589A7.009,7.009,0,0,1,14.385,11.017Z" fill="#888da8"/>
  </g>
</svg>
