<svg xmlns="http://www.w3.org/2000/svg" width="73.664" height="64.998" viewBox="0 0 73.664 64.998">
  <path id="quick3" d="M11102.185-1708.718l-9.3-11.775a.992.992,0,0,0-.784-.382h-28.807a6.282,6.282,0,0,1-6.274-6.274v-25.843a6.284,6.284,0,0,1,6.274-6.277h41.1a6.285,6.285,0,0,1,6.276,6.277v25.843a6.306,6.306,0,0,1-5.131,6.168v11.1a1.852,1.852,0,0,1-1.26,1.773,1.908,1.908,0,0,1-.628.106A1.845,1.845,0,0,1,11102.185-1708.718Zm-43.012-44.274v25.843a4.12,4.12,0,0,0,4.116,4.116h28.807a3.139,3.139,0,0,1,2.479,1.2l8.8,11.143v-11.265a1.081,1.081,0,0,1,1.065-1.079,4.133,4.133,0,0,0,4.065-4.116v-25.843a4.125,4.125,0,0,0-4.118-4.119h-41.1A4.123,4.123,0,0,0,11059.173-1752.992Zm-16.516,24.8a1.756,1.756,0,0,1-1.19-1.679v-9.547a5.629,5.629,0,0,1-4.467-5.485v-22.5a5.609,5.609,0,0,1,5.6-5.6h35.775a5.607,5.607,0,0,1,5.6,5.6v4.163a1.078,1.078,0,0,1-1.079,1.079,1.08,1.08,0,0,1-1.079-1.079v-4.163a3.448,3.448,0,0,0-3.443-3.444H11042.6a3.448,3.448,0,0,0-3.446,3.444v22.5a3.459,3.459,0,0,0,3.4,3.444,1.08,1.08,0,0,1,1.065,1.079v9.405l7.412-9.386a2.873,2.873,0,0,1,1.859-1.068,1.08,1.08,0,0,1,1.222.917,1.079,1.079,0,0,1-.918,1.219.736.736,0,0,0-.471.271l-8.1,10.253a1.751,1.751,0,0,1-1.381.677A1.849,1.849,0,0,1,11042.657-1728.189Zm24.062-2.986a1.078,1.078,0,0,1-1.079-1.079,1.078,1.078,0,0,1,1.079-1.079h34.241a1.078,1.078,0,0,1,1.079,1.079,1.078,1.078,0,0,1-1.079,1.079Zm0-8.248a1.08,1.08,0,0,1-1.079-1.079,1.078,1.078,0,0,1,1.079-1.079h34.241a1.078,1.078,0,0,1,1.079,1.079,1.08,1.08,0,0,1-1.079,1.079Zm0-8.251a1.078,1.078,0,0,1-1.079-1.079,1.08,1.08,0,0,1,1.079-1.079h34.241a1.08,1.08,0,0,1,1.079,1.079,1.078,1.078,0,0,1-1.079,1.079Z" transform="translate(-11037 1772.999)" fill="#ff5934"/>
</svg>
