<svg xmlns="http://www.w3.org/2000/svg" width="65.297" height="65.3" viewBox="0 0 65.297 65.3">
  <path id="quick1" d="M4588.9-773.182a1.509,1.509,0,0,1-.771-1.6l1.23-6.832h-.215a6.153,6.153,0,0,1-6.146-6.146V-803.21a6.154,6.154,0,0,1,6.146-6.146h29.913a6.153,6.153,0,0,1,6.145,6.146v15.449a6.153,6.153,0,0,1-6.145,6.146H4599.59a.727.727,0,0,0-.5.2l-8.426,8a1.512,1.512,0,0,1-1.042.417A1.506,1.506,0,0,1,4588.9-773.182Zm-4-30.028v15.449a4.246,4.246,0,0,0,4.241,4.241h.491a1.673,1.673,0,0,1,1.646,1.97l-1.067,5.932,7.561-7.177a2.625,2.625,0,0,1,1.814-.724h19.468a4.246,4.246,0,0,0,4.241-4.241V-803.21a4.246,4.246,0,0,0-4.241-4.241h-29.913A4.246,4.246,0,0,0,4584.9-803.21Zm56.108,15-7.482-7.1a.541.541,0,0,0-.373-.148H4628.7a.952.952,0,0,1-.952-.953.951.951,0,0,1,.952-.952h4.455a2.437,2.437,0,0,1,1.684.672l6.479,6.15-.892-4.947a1.592,1.592,0,0,1,1.567-1.875h.436a3.663,3.663,0,0,0,3.66-3.659v-13.539a3.663,3.663,0,0,0-3.66-3.659H4615.87a3.663,3.663,0,0,0-3.658,3.659v1.712a.952.952,0,0,1-.953.952.952.952,0,0,1-.952-.952v-1.712a5.57,5.57,0,0,1,5.564-5.563h26.561a5.57,5.57,0,0,1,5.564,5.563v13.539a5.571,5.571,0,0,1-5.564,5.564h-.063l1.07,5.941a1.447,1.447,0,0,1-.738,1.534,1.447,1.447,0,0,1-.689.175A1.45,1.45,0,0,1,4641.013-788.213Zm-49.943-.122a.953.953,0,0,1-.953-.953.953.953,0,0,1,.953-.952H4604.1a.952.952,0,0,1,.952.952.953.953,0,0,1-.952.953Zm0-6.009a.953.953,0,0,1-.953-.953.952.952,0,0,1,.953-.952h26.066a.952.952,0,0,1,.952.952.953.953,0,0,1-.952.953Zm0-6.01a.952.952,0,0,1-.953-.952.952.952,0,0,1,.953-.952h26.066a.952.952,0,0,1,.952.952.952.952,0,0,1-.952.952Zm38.083-6.009a.951.951,0,0,1-.952-.952.951.951,0,0,1,.952-.952h13.033a.951.951,0,0,1,.952.952.951.951,0,0,1-.952.952Zm-13.032-6.009a.953.953,0,0,1-.953-.952.953.953,0,0,1,.953-.952h26.065a.951.951,0,0,1,.952.952.951.951,0,0,1-.952.952Zm-19.214-3.435-3.033-5.236a.04.04,0,0,0-.035-.021h-7.1a3.69,3.69,0,0,1-3.686-3.686v-4.711a.953.953,0,0,1,.953-.952.952.952,0,0,1,.952.952v4.711a1.784,1.784,0,0,0,1.781,1.782h7.1a1.953,1.953,0,0,1,1.685.969l2.9,5,2.9-5a1.949,1.949,0,0,1,1.683-.969h7.1a1.784,1.784,0,0,0,1.781-1.782v-9.564a1.783,1.783,0,0,0-1.781-1.782h-23.364a1.784,1.784,0,0,0-1.781,1.782v.4a.953.953,0,0,1-.952.952.953.953,0,0,1-.953-.952v-.4a3.69,3.69,0,0,1,3.686-3.686H4610.1a3.689,3.689,0,0,1,3.686,3.686v9.564a3.689,3.689,0,0,1-3.686,3.686H4603a.041.041,0,0,0-.035.021l-3.033,5.236a1.73,1.73,0,0,1-1.512.871A1.728,1.728,0,0,1,4596.905-815.806Zm-8.01-10.162a.952.952,0,0,1-.952-.953.951.951,0,0,1,.952-.952h9.522a.952.952,0,0,1,.952.952.953.953,0,0,1-.952.953Zm0-4.76a.952.952,0,0,1-.952-.953.951.951,0,0,1,.952-.952h19.044a.952.952,0,0,1,.952.952.953.953,0,0,1-.952.953Z" transform="translate(-4582.85 838.15)" fill="#ff5934" stroke="#fff" stroke-width="0.3"/>
</svg>
