<svg xmlns="http://www.w3.org/2000/svg" width="70" height="65" viewBox="0 0 70 65">
  <path id="quick2" d="M2209.986-773a1.027,1.027,0,0,1-1.026-1.029,1.027,1.027,0,0,1,1.026-1.03h16.129a4.848,4.848,0,0,0,4.834-4.85v-54.546a1.487,1.487,0,0,0-1.483-1.488h-51.214a1.487,1.487,0,0,0-1.482,1.488v26.645a1.028,1.028,0,0,1-1.026,1.029,1.027,1.027,0,0,1-1.025-1.029v-19.206h-8.186a1.487,1.487,0,0,0-1.482,1.488v45.619a4.848,4.848,0,0,0,4.834,4.849h.027a4.848,4.848,0,0,0,4.808-4.85v-24.06a1.027,1.027,0,0,1,1.025-1.03,1.028,1.028,0,0,1,1.026,1.03v24.06a6.9,6.9,0,0,1-1.988,4.85h31.375a1.027,1.027,0,0,1,1.025,1.03,1.027,1.027,0,0,1-1.025,1.029h-36.273l-.036,0h-.013a6.9,6.9,0,0,1-6.835-6.907v-45.619a3.544,3.544,0,0,1,3.534-3.545h8.186v-5.382a3.543,3.543,0,0,1,3.533-3.545h51.214a3.543,3.543,0,0,1,3.533,3.545v54.546a6.9,6.9,0,0,1-6.885,6.908Zm-25.922-7.024a1.026,1.026,0,0,1-1.025-1.029,1.026,1.026,0,0,1,1.025-1.029h40.65a1.027,1.027,0,0,1,1.025,1.029,1.027,1.027,0,0,1-1.025,1.029Zm0-8.461a1.027,1.027,0,0,1-1.025-1.03,1.027,1.027,0,0,1,1.025-1.029h40.65a1.028,1.028,0,0,1,1.025,1.029,1.028,1.028,0,0,1-1.025,1.03Zm21.618-8.461a1.028,1.028,0,0,1-1.026-1.03,1.028,1.028,0,0,1,1.026-1.029h19.031a1.028,1.028,0,0,1,1.025,1.029,1.028,1.028,0,0,1-1.025,1.03Zm-20.217,0a2.434,2.434,0,0,1-2.426-2.435v-14.112a2.434,2.434,0,0,1,2.426-2.435h14.063a2.433,2.433,0,0,1,2.427,2.435v14.112a2.433,2.433,0,0,1-2.427,2.435Zm-.375-16.547v14.112a.376.376,0,0,0,.375.376h14.063a.377.377,0,0,0,.376-.376v-14.112a.376.376,0,0,0-.376-.376h-14.063A.376.376,0,0,0,2185.09-813.492Zm20.592,8.086a1.029,1.029,0,0,1-1.026-1.03,1.028,1.028,0,0,1,1.026-1.029h19.031a1.028,1.028,0,0,1,1.025,1.029,1.028,1.028,0,0,1-1.025,1.03Zm0-8.462a1.028,1.028,0,0,1-1.026-1.029,1.028,1.028,0,0,1,1.026-1.03h19.031a1.028,1.028,0,0,1,1.025,1.03,1.028,1.028,0,0,1-1.025,1.029Zm12.276-7.139q-1.137-.652-1.135-1.424a1.309,1.309,0,0,1,.292-.779.826.826,0,0,1,.66-.393.855.855,0,0,1,.493.21,5.526,5.526,0,0,1,.533.461,2.445,2.445,0,0,0,.744.461,2.664,2.664,0,0,0,1.068.209,2.29,2.29,0,0,0,1.335-.369,1.234,1.234,0,0,0,.534-1.088,1.466,1.466,0,0,0-.292-.9,2.327,2.327,0,0,0-.769-.653c-.317-.173-.665-.341-1.042-.5s-.76-.344-1.145-.544a6.724,6.724,0,0,1-1.051-.679,2.7,2.7,0,0,1-.768-1.005,3.35,3.35,0,0,1-.292-1.432,3.389,3.389,0,0,1,.359-1.59,2.734,2.734,0,0,1,.959-1.071,4.5,4.5,0,0,1,1.285-.561,5.71,5.71,0,0,1,1.453-.179,7.375,7.375,0,0,1,.917.06,8.463,8.463,0,0,1,1.027.2,2.157,2.157,0,0,1,.884.429.884.884,0,0,1,.343.688,1.534,1.534,0,0,1-.233.772.711.711,0,0,1-.635.4,3.13,3.13,0,0,1-.818-.319,3.417,3.417,0,0,0-1.485-.318,2.415,2.415,0,0,0-1.394.343,1.092,1.092,0,0,0-.493.947,1.1,1.1,0,0,0,.4.846,3.145,3.145,0,0,0,.994.587q.592.225,1.285.569a11.047,11.047,0,0,1,1.285.746,3.121,3.121,0,0,1,.994,1.164,3.794,3.794,0,0,1,.4,1.785,3.3,3.3,0,0,1-1.093,2.651,4.286,4.286,0,0,1-2.88.933A5.362,5.362,0,0,1,2217.959-821.007Zm-7.346.41a.813.813,0,0,1-.485-.544l-1.068-4.523-1.085,4.523a.817.817,0,0,1-.484.544,2.05,2.05,0,0,1-.9.193,2.09,2.09,0,0,1-.918-.193.865.865,0,0,1-.5-.544l-3.306-10.536a.632.632,0,0,1-.033-.2.734.734,0,0,1,.451-.611,1.848,1.848,0,0,1,.935-.26c.4,0,.639.146.718.436l2.638,9.08,1.419-5.829q.151-.6,1.068-.6c.6,0,.952.2,1.052.6l1.419,5.829,2.638-9.08q.117-.435.719-.436a1.854,1.854,0,0,1,.935.26.732.732,0,0,1,.45.611.632.632,0,0,1-.033.2l-3.305,10.536q-.252.738-1.419.738A2.048,2.048,0,0,1,2210.613-820.6Zm-16.5.093a1.2,1.2,0,0,1-.667-.184.572.572,0,0,1-.283-.5v-10.871a.572.572,0,0,1,.283-.5,1.2,1.2,0,0,1,.667-.185h5.944a.561.561,0,0,1,.509.285,1.216,1.216,0,0,1,.176.653,1.237,1.237,0,0,1-.184.687.566.566,0,0,1-.5.284h-4.725v3.351h2.539a.582.582,0,0,1,.5.26,1.026,1.026,0,0,1,.184.611,1,1,0,0,1-.176.578.574.574,0,0,1-.508.26h-2.539v3.367h4.725a.569.569,0,0,1,.5.284,1.242,1.242,0,0,1,.184.688,1.219,1.219,0,0,1-.176.653.56.56,0,0,1-.509.284Zm-5.292-.688-3.59-6.734v6.734a.559.559,0,0,1-.326.5,1.508,1.508,0,0,1-.76.185,1.5,1.5,0,0,1-.768-.185.56.56,0,0,1-.318-.5v-10.871a.555.555,0,0,1,.318-.511,1.568,1.568,0,0,1,.768-.176,1.613,1.613,0,0,1,.918.219,2.727,2.727,0,0,1,.7.938l3.222,6.249v-6.735a.538.538,0,0,1,.317-.5,1.624,1.624,0,0,1,.768-.168,1.627,1.627,0,0,1,.768.168.538.538,0,0,1,.317.5v10.888a.559.559,0,0,1-.325.5,1.512,1.512,0,0,1-.76.185A1.3,1.3,0,0,1,2188.825-821.192Z" transform="translate(-2163 838)" fill="#ff5934"/>
</svg>
