<svg xmlns="http://www.w3.org/2000/svg" width="15.299" height="15.3" viewBox="0 0 15.299 15.3">
  <path id="register" d="M7.212,14.908a.312.312,0,0,1-.086-.282l.442-2.209a.306.306,0,0,1,.085-.16L12.516,7.4a.939.939,0,0,1,1.326,0l.884.884a.938.938,0,0,1,0,1.326L9.864,14.467a.31.31,0,0,1-.16.085l-2.209.442a.363.363,0,0,1-.06.006A.315.315,0,0,1,7.212,14.908Zm5.746-7.071L8.164,12.632l-.331,1.657,1.657-.331,4.794-4.794a.313.313,0,0,0,0-.442L13.4,7.837a.313.313,0,0,0-.442,0ZM9.649,14.246H9.643ZM1.563,13.125A1.564,1.564,0,0,1,0,11.563V3.437A1.564,1.564,0,0,1,1.563,1.875H2.5V1.563a.313.313,0,0,1,.313-.313h.969a1.563,1.563,0,0,1,3.063,0h.969a.312.312,0,0,1,.312.313v.312h.938a1.564,1.564,0,0,1,1.563,1.563v3.75a.312.312,0,0,1-.625,0V3.437A.939.939,0,0,0,9.062,2.5H8.125v.313a.938.938,0,0,1-.937.938H3.437A.939.939,0,0,1,2.5,2.812V2.5H1.563a.939.939,0,0,0-.938.938v8.125a.939.939,0,0,0,.938.937H5.938a.312.312,0,0,1,0,.625ZM3.125,2.812a.313.313,0,0,0,.312.313h3.75A.313.313,0,0,0,7.5,2.812V1.875H6.563a.313.313,0,0,1-.313-.312.937.937,0,1,0-1.875,0,.313.313,0,0,1-.313.312H3.125ZM2.188,9.375a.312.312,0,1,1,0-.625h6.25a.312.312,0,1,1,0,.625Zm0-1.875a.312.312,0,1,1,0-.625h6.25a.312.312,0,1,1,0,.625Zm0-1.875a.312.312,0,1,1,0-.625h6.25a.312.312,0,1,1,0,.625Z" transform="translate(0.15 0.15)" fill="#fff" stroke="#fff" stroke-width="0.3"/>
</svg>
