<svg xmlns="http://www.w3.org/2000/svg" width="18" height="17.995" viewBox="0 0 18 17.995">
  <g id="search" transform="translate(-777.974 -121)">
    <g id="search-2" data-name="search" transform="translate(768.259 111.294)">
      <path id="Path_5" data-name="Path 5" d="M27.553,26.681l-4.667-4.669a7.476,7.476,0,1,0-.857.857L26.7,27.538a.606.606,0,0,0,.857-.857ZM12.771,21.608a6.255,6.255,0,1,1,8.849,0,6.251,6.251,0,0,1-8.849,0Z" transform="translate(0 0)" fill="#fff"/>
    </g>
    <g id="Path_6" data-name="Path 6" transform="translate(789 123)" fill="#fff">
      <path d="M 3 5 C 1.897199988365173 5 1 4.102799892425537 1 3 C 1 1.897199988365173 1.897199988365173 1 3 1 C 4.102799892425537 1 5 1.897199988365173 5 3 C 5 4.102799892425537 4.102799892425537 5 3 5 Z" stroke="none"/>
      <path d="M 3 2 C 2.448600053787231 2 2 2.448600053787231 2 3 C 2 3.551399946212769 2.448600053787231 4 3 4 C 3.551399946212769 4 4 3.551399946212769 4 3 C 4 2.448600053787231 3.551399946212769 2 3 2 M 3 0 C 4.65684986114502 0 6 1.34315013885498 6 3 C 6 4.65684986114502 4.65684986114502 6 3 6 C 1.34315013885498 6 0 4.65684986114502 0 3 C 0 1.34315013885498 1.34315013885498 0 3 0 Z" stroke="none" fill="#ff6a49"/>
    </g>
  </g>
</svg>
