<svg xmlns="http://www.w3.org/2000/svg" width="70" height="87.778" viewBox="0 0 70 87.778">
  <path id="shop" d="M7.682,87.778A7.691,7.691,0,0,1,0,80.1V21.543a2.561,2.561,0,0,1,2.561-2.561H19.807V33.834a2.561,2.561,0,0,0,5.121,0V18.982H19.807V15.193a15.193,15.193,0,1,1,30.386,0v3.789H45.072V33.834a2.561,2.561,0,0,0,5.121,0V18.982H67.439A2.561,2.561,0,0,1,70,21.543V80.1a7.691,7.691,0,0,1-7.682,7.682ZM18.607,53.845c0,3.214,2.2,7.117,6.551,11.6a48.6,48.6,0,0,0,8.561,7.138,2.561,2.561,0,0,0,2.561,0c3.873-2.237,15.112-11.191,15.112-18.739A9.7,9.7,0,0,0,35,46.818a9.7,9.7,0,0,0-16.393,7.027ZM45.072,18.982V15.193a10.072,10.072,0,1,0-20.144,0v3.789ZM28.836,61.88c-4.739-4.888-5.107-7.386-5.107-8.036a4.587,4.587,0,0,1,8.876-1.623,2.561,2.561,0,0,0,4.79,0,4.587,4.587,0,0,1,8.877,1.623c0,3.761-6.7,10.37-11.232,13.468A51.427,51.427,0,0,1,28.836,61.88Z"/>
</svg>
