<svg xmlns="http://www.w3.org/2000/svg" width="14.93" height="14.93" viewBox="0 0 14.93 14.93">
  <path id="star2" d="M3.342,15.422a.77.77,0,0,1-.465-.158.847.847,0,0,1-.309-.855l.96-4.415L.272,7.014a.851.851,0,0,1-.233-.88.8.8,0,0,1,.682-.569l4.31-.408L6.735,1a.781.781,0,0,1,1.459,0L9.9,5.156l4.309.408a.8.8,0,0,1,.683.569.851.851,0,0,1-.232.88L11.4,9.994l.96,4.415a.846.846,0,0,1-.308.855.765.765,0,0,1-.872.04L7.465,12.986,3.749,15.3A.77.77,0,0,1,3.342,15.422Zm4.123-3.435a.771.771,0,0,1,.407.117l3.507,2.189-.906-4.167a.85.85,0,0,1,.251-.807L13.8,6.505,9.731,6.12a.8.8,0,0,1-.659-.5L7.465,1.691,5.857,5.619a.794.794,0,0,1-.657.5L1.13,6.5,4.205,9.319a.848.848,0,0,1,.251.808l-.906,4.167L7.058,12.1A.77.77,0,0,1,7.465,11.988ZM5,5.237H5Zm4.932,0h0Zm0,0" transform="translate(0 -0.492)" fill="#4f5164"/>
</svg>
