<svg xmlns="http://www.w3.org/2000/svg" width="27.207" height="26.004" viewBox="0 0 27.207 26.004">
  <path id="star" d="M11042.034,24440.8a1.027,1.027,0,0,1-.4-1.072l.938-4.158a.383.383,0,1,1,.748.164l-.938,4.16a.267.267,0,0,0,.1.287.273.273,0,0,0,.307.012l7.109-4.219a.362.362,0,0,1,.386,0l7.109,4.219a.273.273,0,0,0,.307-.012.267.267,0,0,0,.1-.287l-1.815-8.061a.383.383,0,0,1,.116-.375l6.214-5.453a.267.267,0,0,0,.08-.293.273.273,0,0,0-.233-.191l-8.231-.76a.389.389,0,0,1-.319-.232l-1.675-3.9a.384.384,0,0,1,.2-.5.378.378,0,0,1,.5.2l1.589,3.682,8,.742a1.037,1.037,0,0,1,.9.717,1.025,1.025,0,0,1-.307,1.1l-6.036,5.313,1.767,7.84a1.05,1.05,0,0,1-1.012,1.275,1.088,1.088,0,0,1-.54-.146l-6.906-4.111-6.913,4.111a1.076,1.076,0,0,1-.536.148A1.025,1.025,0,0,1,11042.034,24440.8Zm1.19-6.416a.384.384,0,0,1-.288-.459l.46-2.037-6.042-5.312a1.044,1.044,0,0,1,.595-1.82l8-.742,3.178-7.379a1.044,1.044,0,0,1,1.919,0l.884,2.061a.381.381,0,1,1-.7.3l-.89-2.062a.277.277,0,0,0-.258-.164.27.27,0,0,0-.251.164l-3.27,7.6a.372.372,0,0,1-.319.227l-8.231.766a.265.265,0,0,0-.233.191.267.267,0,0,0,.08.293l6.208,5.453a.374.374,0,0,1,.122.375l-.509,2.258a.38.38,0,0,1-.374.3A.343.343,0,0,1,11043.225,24434.383Z" transform="translate(-11036.487 -24415.5)" fill="#ff5934" stroke="#ff5934" stroke-width="1"/>
</svg>
