<svg id="twitter" xmlns="http://www.w3.org/2000/svg" width="19.314" height="15.693" viewBox="0 0 19.314 15.693">
  <g id="Group_1733" data-name="Group 1733" transform="translate(0 0)">
    <path id="Path_6953" data-name="Path 6953" d="M19.314,142.4a8.254,8.254,0,0,1-2.282.625,3.937,3.937,0,0,0,1.742-2.189,7.913,7.913,0,0,1-2.511.958A3.959,3.959,0,0,0,9.415,144.5a4.077,4.077,0,0,0,.092.9,11.208,11.208,0,0,1-8.162-4.142,3.961,3.961,0,0,0,1.217,5.292,3.91,3.91,0,0,1-1.789-.488v.043A3.978,3.978,0,0,0,3.945,150a3.952,3.952,0,0,1-1.038.13,3.5,3.5,0,0,1-.75-.068,4,4,0,0,0,3.7,2.758,7.956,7.956,0,0,1-4.909,1.689A7.418,7.418,0,0,1,0,154.454a11.148,11.148,0,0,0,6.074,1.777,11.192,11.192,0,0,0,11.27-11.268c0-.175-.006-.344-.014-.512A7.9,7.9,0,0,0,19.314,142.4Z" transform="translate(0 -140.538)" fill="#ff5934"/>
  </g>
</svg>
