<svg xmlns="http://www.w3.org/2000/svg" width="70" height="56.546" viewBox="0 0 70 56.546">
  <path id="video" d="M57.989,56.546V41.269H70V54.4a2.144,2.144,0,0,1-2.143,2.143Zm-41.691,0V0H53.7V56.546Zm11.211-36.26V36.26a2.143,2.143,0,0,0,3.219,1.853l13.754-7.987a2.143,2.143,0,0,0,0-3.706L30.727,18.433a2.124,2.124,0,0,0-1.071-.292A2.146,2.146,0,0,0,27.508,20.286ZM2.143,56.546A2.144,2.144,0,0,1,0,54.4V41.269H12.011V56.546ZM57.989,36.983V19.563H70v17.42ZM0,36.983V19.563H12.011v17.42ZM0,15.277V2.143A2.144,2.144,0,0,1,2.143,0h9.869V15.277Zm57.989,0V0h9.869A2.144,2.144,0,0,1,70,2.143V15.277Z"/>
</svg>
